<svg xmlns="http://www.w3.org/2000/svg" viewBox="0 0 100 100"><path d="M50 17.373c-6.337 0-12.376 1.981-17.464 5.729a2 2 0 102.373 3.22A25.269 25.269 0 0150 21.372c14.046 0 25.473 11.427 25.473 25.473 0 5.43-1.686 10.612-4.873 14.986a2 2 0 003.232 2.356c3.69-5.063 5.641-11.06 5.641-17.342 0-16.251-13.222-29.472-29.473-29.472zm17.268 48.199A25.396 25.396 0 0150 72.318c-14.046 0-25.473-11.427-25.473-25.472 0-6.459 2.421-12.62 6.818-17.346a2 2 0 00-2.93-2.725 29.377 29.377 0 00-7.889 20.07c0 16.251 13.222 29.472 29.473 29.472a29.385 29.385 0 0019.98-7.806 2 2 0 00-2.711-2.939z"/><path d="M69.147 40.58a3.581 3.581 0 00-2.907-2.451l-8.99-1.307-4.021-8.146c-.611-1.238-1.849-2.007-3.229-2.007s-2.618.769-3.229 2.007l-4.021 8.147-8.99 1.307a3.58 3.58 0 00-2.907 2.451 3.58 3.58 0 00.912 3.691l6.505 6.341-1.536 8.955a3.606 3.606 0 003.55 4.212 3.62 3.62 0 001.676-.417L50 59.135l8.041 4.227c1.474.774 3.367.393 4.435-.871a3.59 3.59 0 00.791-2.925l-1.536-8.954 6.506-6.341a3.58 3.58 0 00.91-3.691zm-10.961 7.902a2 2 0 00-.576 1.771l1.577 9.193-8.256-4.34a1.995 1.995 0 00-1.861 0l-8.256 4.34 1.577-9.193a2.004 2.004 0 00-.576-1.771l-6.679-6.511 9.23-1.341a1.999 1.999 0 001.506-1.094L50 31.171l4.129 8.365c.291.59.854 1 1.506 1.094l9.229 1.341-6.678 6.511z"/><path d="M83.39 66.881a38.714 38.714 0 005.562-20.035C88.952 25.367 71.479 7.893 50 7.893S11.048 25.367 11.048 46.846c0 7.066 1.956 14.007 5.568 20.029l-11.03 11.03a2.001 2.001 0 001.236 3.407l8.24.733.733 8.24a2 2 0 003.408 1.236l11.081-11.098A38.763 38.763 0 0050 85.799c7.19 0 13.927-1.966 19.714-5.378l11.082 11.1a2.002 2.002 0 002.097.467 2.004 2.004 0 001.311-1.703l.733-8.24 8.24-.733a2 2 0 001.236-3.407L83.39 66.881zM50 81.798a34.768 34.768 0 01-18.889-5.563l-.049-.033a35.274 35.274 0 01-4.852-3.773 2 2 0 10-2.724 2.929 39.3 39.3 0 003.397 2.81L19.4 85.662l-.502-5.638a2.001 2.001 0 00-1.814-1.815l-5.643-.502 7.45-7.45c.283.376.569.749.867 1.115a2 2 0 003.105-2.522 34.999 34.999 0 01-7.815-22.003c0-19.273 15.68-34.953 34.952-34.953s34.952 15.68 34.952 34.953c0 19.271-15.68 34.951-34.952 34.951zm32.916-3.59a2 2 0 00-1.814 1.815l-.502 5.639-7.479-7.491a39.292 39.292 0 007.989-7.914l7.449 7.449-5.643.502z"/></svg>