<svg xmlns="http://www.w3.org/2000/svg" viewBox="0 0 51.52 48.46"><g data-name="Camada 2"><path d="M19.11 48.46a6.19 6.19 0 01-2.68-1.16 4.9 4.9 0 01-.87-6.67l.3-.46h-1.07a1.39 1.39 0 01-1.4-2c.51-1.43 1-2.86 1.55-4.29.06-.17.11-.34.18-.57h-.66a1.7 1.7 0 01-1.79-1.48q-2-10.8-3.95-21.6c-.23-1.32-.47-2.6-.72-3.88a.8.8 0 00-.57-.71C5.36 4.84 3.28 4 1.19 3.19A1.65 1.65 0 010 1.37 1.63 1.63 0 012.37.15c2.1.81 4.2 1.64 6.3 2.47.14 0 .28.12.42.16a2.64 2.64 0 012.08 2.53c1 5.64 2.05 11.27 3.09 16.91.44 2.45.89 4.9 1.33 7.35 0 .14.08.28.12.45h25.53c.36 0 .57 0 .7-.44q2.78-8.78 5.59-17.52c0-.09 0-.19.09-.34-.2 0-.37-.06-.55-.07l-8.24-.34-8-.36-8.19-.34c-1.59-.07-3.19-.12-4.78-.21a1.61 1.61 0 01-1.54-1.76A1.59 1.59 0 0118 7.15c1.51 0 3 .11 4.52.18l6 .27 8.35.4 7.89.33c1.69.07 3.39.13 5.08.21a1.76 1.76 0 011.68 1.41v.5c-.09.23-.17.46-.25.7l-6.58 20.5c-.44 1.37-.81 1.65-2.24 1.65h-23.9a.6.6 0 00-.7.5c-.22.68-.49 1.35-.73 2s-.37 1.06-.59 1.68h25.92a2 2 0 01.65 0 2.16 2.16 0 01.9.52 1.31 1.31 0 01-.78 2.16c-.57.08-1.15.06-1.78.09l.26.38a4.86 4.86 0 01-1.56 7.18 14.92 14.92 0 01-1.91.69h-1a.56.56 0 00-.17-.09 4.9 4.9 0 01-3.65-7.19c.17-.33.39-.64.6-1H23.26l.22.33a4.86 4.86 0 01-1.69 7.31 11.3 11.3 0 01-1.78.61zm18.62-7.17a2.2 2.2 0 00-2.21 2.18 2.26 2.26 0 002.22 2.25 2.23 2.23 0 002.2-2.26 2.18 2.18 0 00-2.21-2.17zm-18.16 0a2.24 2.24 0 00-2.25 2.17 2.29 2.29 0 002.24 2.26 2.24 2.24 0 002.2-2.22 2.19 2.19 0 00-2.19-2.21z" data-name="Camada 1"/></g></svg>