<svg xmlns="http://www.w3.org/2000/svg" viewBox="0 0 62.37 47.45"><g data-name="Camada 2"><path d="M62.37 4.22v39c-1.43 3.09-3.77 4.25-7.24 4.22-16.21-.14-32.42-.06-48.63-.06-4.34.01-6.5-2.1-6.5-6.48V6.47C0 2.09 2.1.06 6.53.06 22.74.05 39 .13 55.15 0 58.6 0 61 1.05 62.37 4.22zM30.91 28L55.25 3.83H7.19zm24.35 15.7l-17-17.24c-1.67 1.7-3.45 3.44-5.15 5.25-1.27 1.35-2.41 1.4-3.66 0-1.75-1.93-3.55-3.81-4.94-5.3L7.32 43.7zM20.89 24L3.82 6.64v34zm37.64 16.61V7.07l-17 16.67z" data-name="Camada 1"/></g></svg>