<svg xmlns="http://www.w3.org/2000/svg" viewBox="0 0 68.35 57.53"><g data-name="Camada 2"><path d="M41.28 49.61a31.77 31.77 0 00-5.43-.13c-.49 0-.94.75-1.41 1.15.5.44 1 1.17 1.5 1.26 1.26.19 2.61-.11 3.85.12a8.91 8.91 0 012.47 1.37c-.83.55-1.64 1.55-2.5 1.59-3.93.17-7.88 0-11.83.09a8.5 8.5 0 01-7.27-3.46c-2.49-3.23-5-6.53-9.59-6.63v-7.84c6.15-.65 8.68 0 11.93 3.06 2 1.93 4.08 3.86 6 5.91.47.5.4 1.5.58 2.28-.8-.1-1.8.07-2.35-.35-1.68-1.28-3.13-2.87-4.79-4.17-.52-.4-1.45-.28-2.19-.39.17.73.11 1.68.56 2.14 1.52 1.58 3.19 3 4.84 4.46 2.08 1.83 4.21 1.82 5.81 0 1.45-1.6 1.29-3.9-.47-5.68-1.38-1.4-3-2.61-4.23-4.11a16.19 16.19 0 00-14.49-6 4 4 0 01-2.37-.88c-1.81-1.35-8-1.49-9.9-.1v10.45l1.71.83a6.1 6.1 0 00.8-1.95c.1-2.48 0-5 0-7.46H8.1v11.5l-.46.23A27.08 27.08 0 005.11 48c-.07 0 .16 1.08.35 1.12a16 16 0 003 .24 2.08 2.08 0 001-.46c2.21-1.51 3.6-1.56 5.61.3 1.6 1.48 2.75 3.48 4.44 4.82s3.89 3 6 3.25A144.88 144.88 0 0041 57.4a3.65 3.65 0 003.72-3.76 3.61 3.61 0 00-3.44-4.03zm26.95-35.18c0-.69-.81-1.35-1.25-2-.41.67-1.15 1.33-1.18 2-.15 2.62-.06 5.25-.06 8h-5.49V11.16c1.19-.68 2.06-1.14 2.86-1.71.09-.06-.22-1-.43-1.08a19 19 0 00-3-.16 1.66 1.66 0 00-.82.35c-2.45 1.62-3.82 1.6-6-.46-1.46-1.42-2.52-3.29-4.08-4.55S45.08.46 43.08.28A155.11 155.11 0 0026.94.14a3.58 3.58 0 00-3.34 3.65c-.08 2.08.84 3.68 2.88 4A33.37 33.37 0 0033 8c.48 0 .93-.77 1.4-1.19-.53-.42-1-1.13-1.59-1.2a28.16 28.16 0 00-4.31-.06C27.31 5.6 26 5.43 26.14 4c.06-.58 1.49-1.4 2.32-1.44 3.78-.15 7.58 0 11.37-.09a9 9 0 018 3.76c2.36 3.17 4.9 6.22 9.37 6.33v7.79c-6.31.91-8.86.07-13.18-4.22-1.56-1.54-3.22-3-4.68-4.63-.48-.54-.49-1.5-.72-2.26.85.1 1.91-.09 2.5.35 1.69 1.26 3.13 2.85 4.79 4.17.46.37 1.32.24 2 .35-.12-.73 0-1.69-.39-2.12-1.51-1.59-3.19-3-4.83-4.47-2.11-1.85-4.18-1.9-5.82-.16s-1.36 4 .49 5.84c2.15 2.14 4.32 4.25 6.54 6.32a12.37 12.37 0 007.9 3.5c2.67.17 5.63-.55 7.84 1.83a1.65 1.65 0 001.07.28 35.7 35.7 0 005.71-.13 2.77 2.77 0 001.78-2 70.83 70.83 0 00.03-8.57zM39.1 21.78c-1.64 0-3.27.77-5.37 1.31l-.44-.28c-3.09-1.84-6.56-1.28-8.5 1.38s-1.44 6.19 1.34 8.49c2.21 1.84 4.45 3.65 6.79 5.32a2.57 2.57 0 002.32.19c2.64-1.9 5.21-3.93 7.67-6a5.63 5.63 0 001.49-6.45 5.32 5.32 0 00-5.3-3.96zm1.56 9A47.14 47.14 0 0135.32 35a2.43 2.43 0 01-2.24 0 62.09 62.09 0 01-5.36-4.18c-1.92-1.63-2.07-4-.45-5.54s4-1.37 5.47.71c1.19 1.66 2 1.44 3-.1a3.11 3.11 0 014.13-1.34c1.13.57 1.89 1.87 3 3.05a19 19 0 01-2.21 3.13z" data-name="Camada 1"/></g></svg>