<svg xmlns="http://www.w3.org/2000/svg" viewBox="0 0 50.6 60"><g data-name="Camada 2"><g data-name="Camada 1"><path d="M48.19 24c-3.73-7.82-10-12.5-18.32-14.28a20.4 20.4 0 001-3.36C31.28 3 29.2 1.25 26.52 0h-2.4c-2.77 1.28-4.88 3.05-4.38 6.49a17.76 17.76 0 001 3.1c-14.61 3.19-22 16-20.55 28.09A25.35 25.35 0 0024.07 60c11.35.7 22.62-7.34 25.56-18.31A25 25 0 0048.19 24zM25.38 2.32a3.53 3.53 0 013.48 3.6 3.56 3.56 0 01-7.1-.16 3.49 3.49 0 013.62-3.44zm0 55.43A23.19 23.19 0 012.16 34.1c0-12.34 10.62-22.66 23.17-22.63a23.14 23.14 0 010 46.28z"/><path d="M26.44 16.33A18.36 18.36 0 1025.05 53c9.71.28 18.39-8 18.65-17.77a18.62 18.62 0 00-17.26-18.9zm-1.2 34.48A16.2 16.2 0 019.1 34.49c-.1-8.64 7.44-16.08 16.24-16.07a16.2 16.2 0 11-.1 32.39z"/><path d="M21.75 32Q18.86 37.76 16 43.54l.27.31C20.11 41.91 24 40 27.78 38a2.08 2.08 0 00.9-.75c2-3.92 4-7.86 5.94-11.79a133.09 133.09 0 00-12.12 5.65 2 2 0 00-.75.89zm7.85-1.86c-1.12 4.64-3.92 7.52-8.53 8.58a10.76 10.76 0 018.53-8.58z"/></g></g></svg>