<svg xmlns="http://www.w3.org/2000/svg" viewBox="0 0 54.35 54.33"><g data-name="Camada 2"><g data-name="Camada 1"><path d="M29.71 29.75c-.09-1.72.6-2.4 2.15-2.59a7.75 7.75 0 001.39-.38c4.27-1.21 8.56-2.38 12.8-3.71.58-.18.9-1.14 1.34-1.75-.66-.23-1.31-.49-2-.68-.2-.06-.46.1-.69.16-4.09 1.2-8.25 2.2-12.27 3.56a6.43 6.43 0 01-6.21-.62 29 29 0 00-19.36-4.66c-3.29.32-3.77.51-4.35 3.73C1.73 27.17.84 31.51 0 35.86v1.45a3.19 3.19 0 003.28 2c1-.07 1.34.39 1.4 1.37.2 3.48.54 7 .73 10.44a3.38 3.38 0 002.2 3.19h6.52c.72-.88 1.86-1.68 2.07-2.67.51-2.4.57-4.89.85-7.35.5-4.53 1-9.06 1.57-13.78l7.62 1.83c2.06.51 3.57-.51 3.47-2.59zm-13.34-2.47C15.49 35 14.6 42.6 13.8 50.19c-.12 1.12-.36 1.56-1.57 1.57-3.91.05-4 .11-4.41-3.73s-.63-7.42-.94-11.27H2.66c.92-5.11 1.81-10 2.7-15h4.2v7.2c.06.93-.17 2.15 1.25 2.17s1.32-1.29 1.34-2.27v-7.07c2 0 3.81-.42 5.64.59a77 77 0 007.3 3.62c1.83.76 2.53 1.82 1.89 3.86z"/><path d="M54.32 16.68c0-2-1.07-3-3.06-3H24.84a2.82 2.82 0 00-3.13 2.75c-.3 2 .95 2.53 2.55 2.92 0-1.05.11-2 .16-3h27.17v21.53H24.27v-3.06l-2.37-.52c-.52 5.41-.09 6.64 5.28 6.35 2.73-.14 5.48 0 8.48 0-.44.83-.69 1.36-1 1.86-1.83 3-3.62 6.12-5.51 9.13a1.91 1.91 0 00.18 2.71h1.09c1-1.61 2-3.21 3-4.83a28.49 28.49 0 013.25-4.61c0 2.36-.08 4.73 0 7.08a8.24 8.24 0 00.9 2.36h.73a9.72 9.72 0 00.9-2.55 68.25 68.25 0 01.4-6.94l5.94 9.49h1.09a1.92 1.92 0 00.18-2.71c-1.92-3.06-3.74-6.18-5.59-9.29-.29-.48-.53-1-.9-1.7h10.82c2 0 3.06-1 3.08-2.94q.16-10.53.1-21.03zm-43.54-.38a8.15 8.15 0 000-16.3 8.15 8.15 0 000 16.3zm.15-13.69a5.58 5.58 0 015.37 5.64 5.59 5.59 0 01-5.41 5.44 5.54 5.54 0 010-11.08z"/></g></g></svg>