<svg xmlns="http://www.w3.org/2000/svg" viewBox="0 0 34 32.55"><g data-name="Camada 2"><path d="M34 32.55c.06-1 0-4.07 0-5.11a7.76 7.76 0 00-.43-2.44 8.09 8.09 0 00-2.76-3.83 16.91 16.91 0 00-3.51-2.1 1.33 1.33 0 00-1.68.43 1.27 1.27 0 00.15 1.66 2.54 2.54 0 00.71.43 13 13 0 013 1.94 5 5 0 011.8 3.53c.06.95 0 3.9.05 4.86m-28.69.02v-4.41a5.26 5.26 0 011-3.11 8.85 8.85 0 012.85-2.31 17.38 17.38 0 014.28-1.7 1.32 1.32 0 10-.63-2.56A19 19 0 003.47 21a8.14 8.14 0 00-3.24 4.72C.12 26.15.07 26.6 0 27v5.34zM10 16.63a1.32 1.32 0 101.89-1.84A7 7 0 0110 8.41a7.17 7.17 0 0114 2.77 7.07 7.07 0 01-4.53 5.38.31.31 0 01-.43-.12 2.64 2.64 0 10-2.63 4.21 2.64 2.64 0 002.74-1.09.57.57 0 01.3-.23 9.35 9.35 0 003.66-1.86 9.59 9.59 0 003.5-9.57 9.42 9.42 0 00-3.33-5.61 9.54 9.54 0 00-4.43-2.1C18.41.11 18 .06 17.52 0h-1c-.3 0-.61.06-.91.11a9.47 9.47 0 00-4.67 2 9.56 9.56 0 00-3.61 9.07A9.22 9.22 0 0010 16.63z" data-name="Camada 1"/></g></svg>