<svg class="svg-sprites" id="skin-sprite" xmlns="http://www.w3.org/2000/svg" xmlns:xlink="http://www.w3.org/1999/xlink">
    
    <symbol viewBox="0 0 100 100" id="z-award" xmlns="http://www.w3.org/2000/svg"><path d="M50 17.373c-6.337 0-12.376 1.981-17.464 5.729a2 2 0 102.373 3.22A25.269 25.269 0 0150 21.372c14.046 0 25.473 11.427 25.473 25.473 0 5.43-1.686 10.612-4.873 14.986a2 2 0 003.232 2.356c3.69-5.063 5.641-11.06 5.641-17.342 0-16.251-13.222-29.472-29.473-29.472zm17.268 48.199A25.396 25.396 0 0150 72.318c-14.046 0-25.473-11.427-25.473-25.472 0-6.459 2.421-12.62 6.818-17.346a2 2 0 00-2.93-2.725 29.377 29.377 0 00-7.889 20.07c0 16.251 13.222 29.472 29.473 29.472a29.385 29.385 0 0019.98-7.806 2 2 0 00-2.711-2.939z"/><path d="M69.147 40.58a3.581 3.581 0 00-2.907-2.451l-8.99-1.307-4.021-8.146c-.611-1.238-1.849-2.007-3.229-2.007s-2.618.769-3.229 2.007l-4.021 8.147-8.99 1.307a3.58 3.58 0 00-2.907 2.451 3.58 3.58 0 00.912 3.691l6.505 6.341-1.536 8.955a3.606 3.606 0 003.55 4.212 3.62 3.62 0 001.676-.417L50 59.135l8.041 4.227c1.474.774 3.367.393 4.435-.871a3.59 3.59 0 00.791-2.925l-1.536-8.954 6.506-6.341a3.58 3.58 0 00.91-3.691zm-10.961 7.902a2 2 0 00-.576 1.771l1.577 9.193-8.256-4.34a1.995 1.995 0 00-1.861 0l-8.256 4.34 1.577-9.193a2.004 2.004 0 00-.576-1.771l-6.679-6.511 9.23-1.341a1.999 1.999 0 001.506-1.094L50 31.171l4.129 8.365c.291.59.854 1 1.506 1.094l9.229 1.341-6.678 6.511z"/><path d="M83.39 66.881a38.714 38.714 0 005.562-20.035C88.952 25.367 71.479 7.893 50 7.893S11.048 25.367 11.048 46.846c0 7.066 1.956 14.007 5.568 20.029l-11.03 11.03a2.001 2.001 0 001.236 3.407l8.24.733.733 8.24a2 2 0 003.408 1.236l11.081-11.098A38.763 38.763 0 0050 85.799c7.19 0 13.927-1.966 19.714-5.378l11.082 11.1a2.002 2.002 0 002.097.467 2.004 2.004 0 001.311-1.703l.733-8.24 8.24-.733a2 2 0 001.236-3.407L83.39 66.881zM50 81.798a34.768 34.768 0 01-18.889-5.563l-.049-.033a35.274 35.274 0 01-4.852-3.773 2 2 0 10-2.724 2.929 39.3 39.3 0 003.397 2.81L19.4 85.662l-.502-5.638a2.001 2.001 0 00-1.814-1.815l-5.643-.502 7.45-7.45c.283.376.569.749.867 1.115a2 2 0 003.105-2.522 34.999 34.999 0 01-7.815-22.003c0-19.273 15.68-34.953 34.952-34.953s34.952 15.68 34.952 34.953c0 19.271-15.68 34.951-34.952 34.951zm32.916-3.59a2 2 0 00-1.814 1.815l-.502 5.639-7.479-7.491a39.292 39.292 0 007.989-7.914l7.449 7.449-5.643.502z"/></symbol>
    
    <symbol viewBox="0 0 51.52 48.46" id="z-cart" xmlns="http://www.w3.org/2000/svg"><g data-name="Camada 2"><path d="M19.11 48.46a6.19 6.19 0 01-2.68-1.16 4.9 4.9 0 01-.87-6.67l.3-.46h-1.07a1.39 1.39 0 01-1.4-2c.51-1.43 1-2.86 1.55-4.29.06-.17.11-.34.18-.57h-.66a1.7 1.7 0 01-1.79-1.48q-2-10.8-3.95-21.6c-.23-1.32-.47-2.6-.72-3.88a.8.8 0 00-.57-.71C5.36 4.84 3.28 4 1.19 3.19A1.65 1.65 0 010 1.37 1.63 1.63 0 012.37.15c2.1.81 4.2 1.64 6.3 2.47.14 0 .28.12.42.16a2.64 2.64 0 012.08 2.53c1 5.64 2.05 11.27 3.09 16.91.44 2.45.89 4.9 1.33 7.35 0 .14.08.28.12.45h25.53c.36 0 .57 0 .7-.44q2.78-8.78 5.59-17.52c0-.09 0-.19.09-.34-.2 0-.37-.06-.55-.07l-8.24-.34-8-.36-8.19-.34c-1.59-.07-3.19-.12-4.78-.21a1.61 1.61 0 01-1.54-1.76A1.59 1.59 0 0118 7.15c1.51 0 3 .11 4.52.18l6 .27 8.35.4 7.89.33c1.69.07 3.39.13 5.08.21a1.76 1.76 0 011.68 1.41v.5c-.09.23-.17.46-.25.7l-6.58 20.5c-.44 1.37-.81 1.65-2.24 1.65h-23.9a.6.6 0 00-.7.5c-.22.68-.49 1.35-.73 2s-.37 1.06-.59 1.68h25.92a2 2 0 01.65 0 2.16 2.16 0 01.9.52 1.31 1.31 0 01-.78 2.16c-.57.08-1.15.06-1.78.09l.26.38a4.86 4.86 0 01-1.56 7.18 14.92 14.92 0 01-1.91.69h-1a.56.56 0 00-.17-.09 4.9 4.9 0 01-3.65-7.19c.17-.33.39-.64.6-1H23.26l.22.33a4.86 4.86 0 01-1.69 7.31 11.3 11.3 0 01-1.78.61zm18.62-7.17a2.2 2.2 0 00-2.21 2.18 2.26 2.26 0 002.22 2.25 2.23 2.23 0 002.2-2.26 2.18 2.18 0 00-2.21-2.17zm-18.16 0a2.24 2.24 0 00-2.25 2.17 2.29 2.29 0 002.24 2.26 2.24 2.24 0 002.2-2.22 2.19 2.19 0 00-2.19-2.21z" data-name="Camada 1"/></g></symbol>
    
    <symbol viewBox="0 0 62.37 47.45" id="z-email" xmlns="http://www.w3.org/2000/svg"><g data-name="Camada 2"><path d="M62.37 4.22v39c-1.43 3.09-3.77 4.25-7.24 4.22-16.21-.14-32.42-.06-48.63-.06-4.34.01-6.5-2.1-6.5-6.48V6.47C0 2.09 2.1.06 6.53.06 22.74.05 39 .13 55.15 0 58.6 0 61 1.05 62.37 4.22zM30.91 28L55.25 3.83H7.19zm24.35 15.7l-17-17.24c-1.67 1.7-3.45 3.44-5.15 5.25-1.27 1.35-2.41 1.4-3.66 0-1.75-1.93-3.55-3.81-4.94-5.3L7.32 43.7zM20.89 24L3.82 6.64v34zm37.64 16.61V7.07l-17 16.67z" data-name="Camada 1"/></g></symbol>
    
    <symbol viewBox="0 0 27.57 46.94" id="z-next" xmlns="http://www.w3.org/2000/svg"><g data-name="Camada 2"><path d="M26.83 21.64L5.94.75a2.57 2.57 0 00-3.63 0L.77 2.29a2.57 2.57 0 000 3.63l17.54 17.54L.75 41A2.54 2.54 0 000 42.83a2.58 2.58 0 00.75 1.82l1.54 1.54a2.57 2.57 0 003.63 0l20.91-20.91a2.61 2.61 0 000-3.64z" data-name="Camada 1"/></g></symbol>
    
    <symbol viewBox="0 0 27.57 46.94" id="z-prev" xmlns="http://www.w3.org/2000/svg"><g data-name="Camada 2"><path d="M.75 25.3l20.89 20.89a2.54 2.54 0 001.81.75 2.58 2.58 0 001.82-.75l1.53-1.54a2.55 2.55 0 000-3.63L9.27 23.48 26.82 5.92a2.52 2.52 0 00.75-1.82 2.52 2.52 0 00-.75-1.81L25.29.75a2.58 2.58 0 00-3.64 0L.75 21.66a2.58 2.58 0 000 3.64z" data-name="Camada 1"/></g></symbol>
    
    <symbol viewBox="0 0 68.35 57.53" id="z-sales" xmlns="http://www.w3.org/2000/svg"><g data-name="Camada 2"><path d="M41.28 49.61a31.77 31.77 0 00-5.43-.13c-.49 0-.94.75-1.41 1.15.5.44 1 1.17 1.5 1.26 1.26.19 2.61-.11 3.85.12a8.91 8.91 0 012.47 1.37c-.83.55-1.64 1.55-2.5 1.59-3.93.17-7.88 0-11.83.09a8.5 8.5 0 01-7.27-3.46c-2.49-3.23-5-6.53-9.59-6.63v-7.84c6.15-.65 8.68 0 11.93 3.06 2 1.93 4.08 3.86 6 5.91.47.5.4 1.5.58 2.28-.8-.1-1.8.07-2.35-.35-1.68-1.28-3.13-2.87-4.79-4.17-.52-.4-1.45-.28-2.19-.39.17.73.11 1.68.56 2.14 1.52 1.58 3.19 3 4.84 4.46 2.08 1.83 4.21 1.82 5.81 0 1.45-1.6 1.29-3.9-.47-5.68-1.38-1.4-3-2.61-4.23-4.11a16.19 16.19 0 00-14.49-6 4 4 0 01-2.37-.88c-1.81-1.35-8-1.49-9.9-.1v10.45l1.71.83a6.1 6.1 0 00.8-1.95c.1-2.48 0-5 0-7.46H8.1v11.5l-.46.23A27.08 27.08 0 005.11 48c-.07 0 .16 1.08.35 1.12a16 16 0 003 .24 2.08 2.08 0 001-.46c2.21-1.51 3.6-1.56 5.61.3 1.6 1.48 2.75 3.48 4.44 4.82s3.89 3 6 3.25A144.88 144.88 0 0041 57.4a3.65 3.65 0 003.72-3.76 3.61 3.61 0 00-3.44-4.03zm26.95-35.18c0-.69-.81-1.35-1.25-2-.41.67-1.15 1.33-1.18 2-.15 2.62-.06 5.25-.06 8h-5.49V11.16c1.19-.68 2.06-1.14 2.86-1.71.09-.06-.22-1-.43-1.08a19 19 0 00-3-.16 1.66 1.66 0 00-.82.35c-2.45 1.62-3.82 1.6-6-.46-1.46-1.42-2.52-3.29-4.08-4.55S45.08.46 43.08.28A155.11 155.11 0 0026.94.14a3.58 3.58 0 00-3.34 3.65c-.08 2.08.84 3.68 2.88 4A33.37 33.37 0 0033 8c.48 0 .93-.77 1.4-1.19-.53-.42-1-1.13-1.59-1.2a28.16 28.16 0 00-4.31-.06C27.31 5.6 26 5.43 26.14 4c.06-.58 1.49-1.4 2.32-1.44 3.78-.15 7.58 0 11.37-.09a9 9 0 018 3.76c2.36 3.17 4.9 6.22 9.37 6.33v7.79c-6.31.91-8.86.07-13.18-4.22-1.56-1.54-3.22-3-4.68-4.63-.48-.54-.49-1.5-.72-2.26.85.1 1.91-.09 2.5.35 1.69 1.26 3.13 2.85 4.79 4.17.46.37 1.32.24 2 .35-.12-.73 0-1.69-.39-2.12-1.51-1.59-3.19-3-4.83-4.47-2.11-1.85-4.18-1.9-5.82-.16s-1.36 4 .49 5.84c2.15 2.14 4.32 4.25 6.54 6.32a12.37 12.37 0 007.9 3.5c2.67.17 5.63-.55 7.84 1.83a1.65 1.65 0 001.07.28 35.7 35.7 0 005.71-.13 2.77 2.77 0 001.78-2 70.83 70.83 0 00.03-8.57zM39.1 21.78c-1.64 0-3.27.77-5.37 1.31l-.44-.28c-3.09-1.84-6.56-1.28-8.5 1.38s-1.44 6.19 1.34 8.49c2.21 1.84 4.45 3.65 6.79 5.32a2.57 2.57 0 002.32.19c2.64-1.9 5.21-3.93 7.67-6a5.63 5.63 0 001.49-6.45 5.32 5.32 0 00-5.3-3.96zm1.56 9A47.14 47.14 0 0135.32 35a2.43 2.43 0 01-2.24 0 62.09 62.09 0 01-5.36-4.18c-1.92-1.63-2.07-4-.45-5.54s4-1.37 5.47.71c1.19 1.66 2 1.44 3-.1a3.11 3.11 0 014.13-1.34c1.13.57 1.89 1.87 3 3.05a19 19 0 01-2.21 3.13z" data-name="Camada 1"/></g></symbol>
    
    <symbol viewBox="0 0 40.73 40.75" id="z-search" xmlns="http://www.w3.org/2000/svg"><g data-name="Camada 2"><path d="M40.73 37.63l-.17.14c-1 .95-1.9 1.89-2.84 2.84a1.37 1.37 0 00-.1.14l-6.36-6.28L25 28.22a15.39 15.39 0 01-13.18 2.57 15.11 15.11 0 01-8.92-6.15A15.64 15.64 0 1129.33 8.06a15.61 15.61 0 011.44 11.57A16 16 0 0128.16 25l1.09 1.06 11.43 11.49zm-12.57-22a12.52 12.52 0 10-12.5 12.52 12.51 12.51 0 0012.5-12.51z" data-name="Camada 1"/></g></symbol>
    
    <symbol viewBox="0 0 512 512" id="z-shield" xmlns="http://www.w3.org/2000/svg"><path d="M256 40.01a9.969 9.969 0 00-9.99 9.99 9.961 9.961 0 008.99 9.938A9.97 9.97 0 00265.99 50c0-5.538-4.46-9.99-9.99-9.99z"/><path d="M456 60c-27.57 0-50-22.43-50-50 0-5.522-4.478-10-10-10H116c-5.522 0-10 4.478-10 10 0 27.57-22.43 50-50 50-5.522 0-10 4.478-10 10v163.19c0 127.177 82.895 241.135 207.128 278.389a9.997 9.997 0 005.745-.001C380.415 475.119 466 363.149 466 233.19V70c0-5.522-4.478-10-10-10zm-10 173.19c0 119.448-76.221 222.892-190 258.353C143.128 456.365 66 351.984 66 233.19V79.288C96.611 74.89 120.89 50.611 125.288 20h261.424C391.11 50.611 415.389 74.89 446 79.288V233.19z"/><path d="M420.012 92.49c-20.854-9.133-37.369-25.648-46.502-46.502A10 10 0 00364.35 40h-68.37c-5.522 0-10 4.478-10 10s4.478 10 10 10h62.047A109.933 109.933 0 00406 107.973V233.19c0 97.863-58.749 182.303-150 216.104-91.251-33.802-150-118.241-150-216.104V107.973A109.938 109.938 0 00153.973 60h62.047c5.522 0 10-4.478 10-10s-4.478-10-10-10h-68.37a10.002 10.002 0 00-9.16 5.988c-9.133 20.854-25.648 37.369-46.502 46.502A10.003 10.003 0 0086 101.65v131.54c0 107.213 66.311 200.653 166.664 236.166a9.993 9.993 0 006.672 0C359.605 433.873 426 340.49 426 233.19V101.65c0-3.972-2.351-7.566-5.988-9.16z"/><path d="M256 146c-49.626 0-90 40.374-90 90s40.374 90 90 90 90-40.374 90-90-40.374-90-90-90zm0 160c-38.598 0-70-31.402-70-70s31.402-70 70-70 70 31.402 70 70-31.402 70-70 70z"/><path d="M303.071 208.928c-3.906-3.904-10.236-3.904-14.143 0L246 251.857l-12.929-12.928c-3.906-3.904-10.236-3.904-14.143 0-3.905 3.905-3.905 10.237 0 14.143l20 20C240.882 275.023 243.44 276 246 276s5.118-.977 7.071-2.929l50-50c3.905-3.905 3.905-10.237 0-14.143z"/></symbol>
    
    <symbol viewBox="0 0 50.6 60" id="z-timer" xmlns="http://www.w3.org/2000/svg"><g data-name="Camada 2"><g data-name="Camada 1"><path d="M48.19 24c-3.73-7.82-10-12.5-18.32-14.28a20.4 20.4 0 001-3.36C31.28 3 29.2 1.25 26.52 0h-2.4c-2.77 1.28-4.88 3.05-4.38 6.49a17.76 17.76 0 001 3.1c-14.61 3.19-22 16-20.55 28.09A25.35 25.35 0 0024.07 60c11.35.7 22.62-7.34 25.56-18.31A25 25 0 0048.19 24zM25.38 2.32a3.53 3.53 0 013.48 3.6 3.56 3.56 0 01-7.1-.16 3.49 3.49 0 013.62-3.44zm0 55.43A23.19 23.19 0 012.16 34.1c0-12.34 10.62-22.66 23.17-22.63a23.14 23.14 0 010 46.28z"/><path d="M26.44 16.33A18.36 18.36 0 1025.05 53c9.71.28 18.39-8 18.65-17.77a18.62 18.62 0 00-17.26-18.9zm-1.2 34.48A16.2 16.2 0 019.1 34.49c-.1-8.64 7.44-16.08 16.24-16.07a16.2 16.2 0 11-.1 32.39z"/><path d="M21.75 32Q18.86 37.76 16 43.54l.27.31C20.11 41.91 24 40 27.78 38a2.08 2.08 0 00.9-.75c2-3.92 4-7.86 5.94-11.79a133.09 133.09 0 00-12.12 5.65 2 2 0 00-.75.89zm7.85-1.86c-1.12 4.64-3.92 7.52-8.53 8.58a10.76 10.76 0 018.53-8.58z"/></g></g></symbol>
    
    <symbol viewBox="0 0 54.35 54.33" id="z-treiner" xmlns="http://www.w3.org/2000/svg"><g data-name="Camada 2"><g data-name="Camada 1"><path d="M29.71 29.75c-.09-1.72.6-2.4 2.15-2.59a7.75 7.75 0 001.39-.38c4.27-1.21 8.56-2.38 12.8-3.71.58-.18.9-1.14 1.34-1.75-.66-.23-1.31-.49-2-.68-.2-.06-.46.1-.69.16-4.09 1.2-8.25 2.2-12.27 3.56a6.43 6.43 0 01-6.21-.62 29 29 0 00-19.36-4.66c-3.29.32-3.77.51-4.35 3.73C1.73 27.17.84 31.51 0 35.86v1.45a3.19 3.19 0 003.28 2c1-.07 1.34.39 1.4 1.37.2 3.48.54 7 .73 10.44a3.38 3.38 0 002.2 3.19h6.52c.72-.88 1.86-1.68 2.07-2.67.51-2.4.57-4.89.85-7.35.5-4.53 1-9.06 1.57-13.78l7.62 1.83c2.06.51 3.57-.51 3.47-2.59zm-13.34-2.47C15.49 35 14.6 42.6 13.8 50.19c-.12 1.12-.36 1.56-1.57 1.57-3.91.05-4 .11-4.41-3.73s-.63-7.42-.94-11.27H2.66c.92-5.11 1.81-10 2.7-15h4.2v7.2c.06.93-.17 2.15 1.25 2.17s1.32-1.29 1.34-2.27v-7.07c2 0 3.81-.42 5.64.59a77 77 0 007.3 3.62c1.83.76 2.53 1.82 1.89 3.86z"/><path d="M54.32 16.68c0-2-1.07-3-3.06-3H24.84a2.82 2.82 0 00-3.13 2.75c-.3 2 .95 2.53 2.55 2.92 0-1.05.11-2 .16-3h27.17v21.53H24.27v-3.06l-2.37-.52c-.52 5.41-.09 6.64 5.28 6.35 2.73-.14 5.48 0 8.48 0-.44.83-.69 1.36-1 1.86-1.83 3-3.62 6.12-5.51 9.13a1.91 1.91 0 00.18 2.71h1.09c1-1.61 2-3.21 3-4.83a28.49 28.49 0 013.25-4.61c0 2.36-.08 4.73 0 7.08a8.24 8.24 0 00.9 2.36h.73a9.72 9.72 0 00.9-2.55 68.25 68.25 0 01.4-6.94l5.94 9.49h1.09a1.92 1.92 0 00.18-2.71c-1.92-3.06-3.74-6.18-5.59-9.29-.29-.48-.53-1-.9-1.7h10.82c2 0 3.06-1 3.08-2.94q.16-10.53.1-21.03zm-43.54-.38a8.15 8.15 0 000-16.3 8.15 8.15 0 000 16.3zm.15-13.69a5.58 5.58 0 015.37 5.64 5.59 5.59 0 01-5.41 5.44 5.54 5.54 0 010-11.08z"/></g></g></symbol>
    
    <symbol viewBox="0 0 34 32.55" id="z-user" xmlns="http://www.w3.org/2000/svg"><g data-name="Camada 2"><path d="M34 32.55c.06-1 0-4.07 0-5.11a7.76 7.76 0 00-.43-2.44 8.09 8.09 0 00-2.76-3.83 16.91 16.91 0 00-3.51-2.1 1.33 1.33 0 00-1.68.43 1.27 1.27 0 00.15 1.66 2.54 2.54 0 00.71.43 13 13 0 013 1.94 5 5 0 011.8 3.53c.06.95 0 3.9.05 4.86m-28.69.02v-4.41a5.26 5.26 0 011-3.11 8.85 8.85 0 012.85-2.31 17.38 17.38 0 014.28-1.7 1.32 1.32 0 10-.63-2.56A19 19 0 003.47 21a8.14 8.14 0 00-3.24 4.72C.12 26.15.07 26.6 0 27v5.34zM10 16.63a1.32 1.32 0 101.89-1.84A7 7 0 0110 8.41a7.17 7.17 0 0114 2.77 7.07 7.07 0 01-4.53 5.38.31.31 0 01-.43-.12 2.64 2.64 0 10-2.63 4.21 2.64 2.64 0 002.74-1.09.57.57 0 01.3-.23 9.35 9.35 0 003.66-1.86 9.59 9.59 0 003.5-9.57 9.42 9.42 0 00-3.33-5.61 9.54 9.54 0 00-4.43-2.1C18.41.11 18 .06 17.52 0h-1c-.3 0-.61.06-.91.11a9.47 9.47 0 00-4.67 2 9.56 9.56 0 00-3.61 9.07A9.22 9.22 0 0010 16.63z" data-name="Camada 1"/></g></symbol>
    
</svg>